<svg height="512" viewBox="0 0 512 512" width="512" xmlns="http://www.w3.org/2000/svg"><g id="Fill_out_line" data-name="Fill out line"><path d="m320 456h-128l30.86-144 17.14-80h32l17.14 80 4.04 18.84z" fill="#eedc9a"/><circle cx="256" cy="232" fill="#d3e1e9" r="176"/><path d="m256 128v-16" fill="none" stroke="#000" stroke-linejoin="round" stroke-width="16"/><path d="m301.56006 61.96-45.56006 170.04-45.56006-170.04a177.11865 177.11865 0 0 1 91.12012 0z" fill="#e88604"/><path d="m380.45 107.55005-124.45 124.44995 45.56006-170.04a175.78173 175.78173 0 0 1 78.88994 45.59005z" fill="#e44b4d"/><path d="m432 232a175.94173 175.94173 0 0 1 -5.96 45.56006l-170.04-45.56006 170.04-45.56006a175.94036 175.94036 0 0 1 5.96 45.56006z" fill="#396795"/><path d="m426.04 277.56006a175.78193 175.78193 0 0 1 -45.59 78.89014l-124.45-124.4502z" fill="#802787"/><path d="m380.45 356.4502a175.78348 175.78348 0 0 1 -78.88994 45.5898l-45.56006-170.04z" fill="#349966"/><path d="m301.56006 402.04a177.11865 177.11865 0 0 1 -91.12012 0l45.56006-170.04z" fill="#e88604"/><path d="m256 232-45.56006 170.04a175.78348 175.78348 0 0 1 -78.88989-45.58984z" fill="#e44b4d"/><path d="m256 232-170.04 45.56006a177.11865 177.11865 0 0 1 0-91.12012z" fill="#396795"/><path d="m256 232-170.04-45.56006a175.78109 175.78109 0 0 1 45.59009-78.88989z" fill="#802787"/><path d="m256 232-124.44995-124.44995a175.78173 175.78173 0 0 1 78.88989-45.59005z" fill="#349966"/><path d="m368 472a15.97876 15.97876 0 0 1 -16 16h-192a16 16 0 1 1 0-32h192a15.99564 15.99564 0 0 1 16 16z" fill="#eedc9a"/><circle cx="256" cy="232" fill="#2f4054" r="32"/><path d="m243.19223 24h25.61554a16 16 0 0 1 13.98652 23.77029l-26.79429 48.22971-26.79429-48.22971a16 16 0 0 1 13.98652-23.77029z" fill="#e44b4d"/><path d="m249.00684 99.88477a7.99948 7.99948 0 0 0 13.98632 0l26.79444-48.2295a24 24 0 0 0 -20.97998-35.65527h-25.61524a24 24 0 0 0 -20.98 35.65527zm-12.70948-63.94141a7.86651 7.86651 0 0 1 6.89502-3.94336h25.61524a8.00079 8.00079 0 0 1 6.99365 11.88574l-19.80127 35.6416-19.80127-35.6416a7.8664 7.8664 0 0 1 .09863-7.94238z"/><path d="m248 112h16v16h-16z"/><path d="m184 97.149h16v48h-16z" transform="matrix(.866 -.5 .5 .866 -34.851 112.231)"/><path d="m137.149 144h15.999v48h-15.999z" transform="matrix(.5 -.866 .866 .5 -72.919 209.696)"/><path d="m104 224h48v16h-48z"/><path d="m121.149 288h48v15.999h-48z" transform="matrix(.866 -.5 .5 .866 -128.559 112.239)"/><path d="m168 334.851h48v16h-48z" transform="matrix(.5 -.866 .866 .5 -200.918 337.703)"/><path d="m248 336h16v48h-16z"/><path d="m312 318.851h16v48h-16z" transform="matrix(.866 -.5 .5 .866 -128.554 205.933)"/><path d="m358.851 272h15.999v48h-15.999z" transform="matrix(.5 -.866 .866 .5 -72.923 465.689)"/><path d="m360 224h48v16h-48z"/><path d="m342.851 160h48v15.999h-48z" transform="matrix(.866 -.5 .5 .866 -34.851 205.933)"/><path d="m296 113.149h48v16h-48z" transform="matrix(.5 -.866 .866 .5 55.082 337.703)"/><path d="m303.62891 54.22656a8.038 8.038 0 0 0 -9.8042 5.7002l-35.41016 132.15283c-.79955-.04785-1.60327-.07959-2.41455-.07959s-1.615.03174-2.41455.07959l-35.42045-132.19189a7.99528 7.99528 0 0 0 -9.79395-5.66114 184.19262 184.19262 0 0 0 -136.37105 177.77344c0 101.458 82.542 184 184 184s184-82.542 184-184a184.19262 184.19262 0 0 0 -136.37109-177.77344zm120.37109 177.77344a167.98091 167.98091 0 0 1 -3.83191 35.70605l-124.24768-33.29174c.04785-.79931.07959-1.60303.07959-2.41431s-.03174-1.615-.07959-2.41431l124.23759-33.28906a167.74375 167.74375 0 0 1 3.842 35.70337zm-43.69458-112.99194a168.63352 168.63352 0 0 1 35.70557 61.8352l-124.23899 33.28955a40.01352 40.01352 0 0 0 -2.41577-4.1748zm-102.26306 146.34794 90.90478 90.90576a168.07982 168.07982 0 0 1 -61.78614 35.76363l-33.29357-124.25339a39.97919 39.97919 0 0 0 4.17493-2.416zm11.31384-11.314a40.01352 40.01352 0 0 0 2.41577-4.1748l124.2533 33.29345a168.075 168.075 0 0 1 -35.76416 61.78711zm17.81616-182.11036a167.11815 167.11815 0 0 1 61.83228 35.74927l-90.96228 90.96309a40.02192 40.02192 0 0 0 -4.17493-2.416zm-27.17236 160.06836a24 24 0 1 1 -24-24 24.0275 24.0275 0 0 1 24 24zm-192 0a167.74375 167.74375 0 0 1 3.842-35.70337l124.23755 33.28906c-.04781.79931-.07955 1.60303-.07955 2.41431s.03174 1.615.07959 2.41431l-124.24768 33.29174a167.98091 167.98091 0 0 1 -3.83191-35.70605zm134.6438-22.042a40.01352 40.01352 0 0 0 -2.41577 4.1748l-124.23903-33.28954a168.63352 168.63352 0 0 1 35.70557-61.8352zm-2.4158 39.90919a40.01352 40.01352 0 0 0 2.41577 4.1748l-90.90491 90.90576a168.075 168.075 0 0 1 -35.76416-61.78711zm13.72964 15.48881a39.97919 39.97919 0 0 0 4.17493 2.416l-33.29357 124.25339a168.07982 168.07982 0 0 1 -61.78613-35.76367zm4.17493-69.12793a40.02192 40.02192 0 0 0 -4.17493 2.416l-90.96228-90.96313a167.11815 167.11815 0 0 1 61.83228-35.74927zm-17.83911 199.93993 33.292-124.24756c.79954.04782 1.60326.07956 2.41454.07956s1.615-.03174 2.41455-.07959l33.292 124.24756a168.27131 168.27131 0 0 1 -71.41308 0z"/><path d="m352 448h-192a24 24 0 0 0 0 48h192a24 24 0 0 0 0-48zm0 32h-192a8 8 0 0 1 0-16h192a8 8 0 0 1 0 16z"/><path d="m185.728 420h24.545v16h-24.545z" transform="matrix(.21 -.978 .978 .21 -261.985 531.932)"/><path d="m306 415.728h16v24.545h-16z" transform="matrix(.978 -.209 .209 .978 -82.69 75.272)"/></g></svg>